HIERARCHY
ROOT Hips
{
  OFFSET 74.0196 97.4445 -31.1285
  CHANNELS 6 Xposition Yposition Zposition Zrotation Xrotation Yrotation
  JOINT RightUpLeg
  {
    OFFSET -8.9458 -8.66707 0.101652
    CHANNELS 3 Zrotation Xrotation Yrotation
    JOINT RightLeg
    {
      OFFSET -2.94875e-013 -44.4227 1.3727
      CHANNELS 3 Zrotation Xrotation Yrotation
      JOINT RightFoot
      {
        OFFSET 0.253549 -42.0924 -1.46059
        CHANNELS 3 Zrotation Xrotation Yrotation
        JOINT RightToes
        {
          OFFSET 0.04 -4.41509 8.4991
          CHANNELS 3 Zrotation Xrotation Yrotation
          End Site
          {
            OFFSET -0.08 -0.137448 9.77979
          }
        }
      }
    }
  }
  JOINT Spine
  {
    OFFSET -5.68434e-014 11.8905 -6.39488e-014
    CHANNELS 3 Zrotation Xrotation Yrotation
    JOINT Spine1
    {
      OFFSET 5.68434e-014 25.6574 0.127663
      CHANNELS 3 Zrotation Xrotation Yrotation
      JOINT HEad
      {
        OFFSET 4.26326e-014 8.73416 0.011341
        CHANNELS 3 Zrotation Xrotation Yrotation
        End Site
        {
          OFFSET -0.29 12.7742 2.51395
        }
      }
      JOINT LeftShoulder1
      {
        OFFSET 8.99 -0.362252 -0.22
        CHANNELS 3 Zrotation Xrotation Yrotation
        JOINT LeftArm
        {
          OFFSET 10.2827 -0.00338 0.322123
          CHANNELS 3 Zrotation Xrotation Yrotation
          JOINT LeftForeArm
          {
            OFFSET 32.7669 0.099144 -1.42434
            CHANNELS 3 Zrotation Xrotation Yrotation
            JOINT LeftHand
            {
              OFFSET 27.5643 0.085362 1.02216
              CHANNELS 3 Zrotation Xrotation Yrotation
              End Site
              {
                OFFSET 16.7443 -0.6 1.50291
              }
            }
          }
        }
      }
      JOINT RightShoulder
      {
        OFFSET -8.99 -0.362252 -0.22
        CHANNELS 3 Zrotation Xrotation Yrotation
        JOINT RightArm
        {
          OFFSET -10.2827 -0.00338 0.322123
          CHANNELS 3 Zrotation Xrotation Yrotation
          JOINT RightForeArm
          {
            OFFSET -32.8971 0.099144 -1.42434
            CHANNELS 3 Zrotation Xrotation Yrotation
            JOINT RightHand
            {
              OFFSET -27.4921 0.085362 1.02216
              CHANNELS 3 Zrotation Xrotation Yrotation
              End Site
              {
                OFFSET -16.6312 -0.6 1.50291
              }
            }
          }
        }
      }
    }
  }
  JOINT LeftUpLeg
  {
    OFFSET 8.9458 -8.66707 0.101652
    CHANNELS 3 Zrotation Xrotation Yrotation
    JOINT LeftLeg
    {
      OFFSET 7.10543e-014 -44.4227 1.3727
      CHANNELS 3 Zrotation Xrotation Yrotation
      JOINT LeftFoot
      {
        OFFSET -0.253549 -42.0924 -1.46059
        CHANNELS 3 Zrotation Xrotation Yrotation
        JOINT LeftToes
        {
          OFFSET -0.04 -4.41509 8.4991
          CHANNELS 3 Zrotation Xrotation Yrotation
          End Site
          {
            OFFSET 0.08 -0.047448 9.77979
          }
        }
      }
    }
  }
}
MOTION
Frames:	14
Frame Time:	0.0166667
-23.641 83.4083 -45.2717 1.97436 5.6465 -167.893 -23.9547 -39.0238 2.34693 13.3753 53.2544 -1.23592 17.6499 9.56531 -2.72082 -10.4463 -35.5808 -0.791364 3.44067 9.47403 -1.91057 -1.72532 17.9063 -2.79772 13.8587 -6.21222 -8.59132 -5.03302e-021 -3.88251e-019 1.21329e-020 -70.0273 -2.38727 -52.7513 -11.5923 41.2645 -117.538 6.54677 9.62745 -1.04006 27.2929 -3.5047 -14.3414 48.6917 -20.4587 10.4832 -16.7893 32.5267 121.882 -16.8629 9.90406 -4.34795 26.2224 -5.86516 -12.4855 -18.2149 45.9483 15.6216 -3.50668 27.5734 0.895441 94.9728 -63.6429 72.7182 
-23.277 81.9976 -45.1335 2.24666 6.20652 -166.497 -25.3705 -39.0846 3.6929 14.2809 54.9044 -5.41969 15.67 11.1784 -2.62798 -11.8198 -39.3249 -1.35365 3.58248 9.88677 -2.29603 -1.58116 18.7574 -3.58635 14.6693 -6.26174 -8.93975 -5.03302e-021 -3.88251e-019 1.21329e-020 -69.8962 -2.23702 -56.5903 -11.763 41.465 -116.872 6.54677 9.62745 -1.04006 27.7252 -3.83699 -15.2869 48.703 -22.4771 10.5383 -16.2737 33.1669 125.23 -16.6633 9.93042 -4.5395 27.0979 -6.89674 -11.6021 -16.7782 48.2049 16.0665 -2.83438 29.9964 0.735232 104.098 -63.2694 80.7068 
-22.8561 80.5709 -45.0508 2.28503 6.74467 -165.038 -26.9111 -38.524 5.2404 14.5316 55.6246 -10.1449 12.8998 13.1844 -2.38001 -12.9179 -42.3771 -1.73258 3.62768 10.307 -2.60737 -1.60893 19.6393 -4.17514 15.7268 -6.4471 -9.57825 -5.03302e-021 -3.88251e-019 1.21329e-020 -69.4007 -1.68628 -59.9155 -11.9171 41.4837 -115.977 6.54677 9.62745 -1.04006 28.0935 -4.12899 -16.0998 48.8669 -25.4111 10.9821 -15.9258 33.8935 129.34 -16.0408 10.0145 -5.18347 27.7292 -8.09546 -10.8122 -15.0162 50.6947 15.6783 -2.84056 32.0683 0.777402 111.803 -62.5912 87.3357 
-22.3986 79.1545 -45.051 2.09923 7.19445 -163.889 -28.3915 -37.5462 6.90488 13.8002 55.363 -14.3143 9.67192 15.3177 -1.95602 -13.4137 -44.1855 -1.69639 3.51645 10.6844 -2.75136 -1.87683 20.4379 -4.37898 16.8521 -6.65193 -10.4107 -5.03302e-021 -3.88251e-019 1.21329e-020 -68.6455 -0.882824 -62.4812 -12.0359 41.3546 -114.959 6.54677 9.62745 -1.04006 28.3265 -4.33533 -16.6746 49.315 -29.2365 11.9228 -15.7017 34.6702 133.822 -14.9167 10.1418 -6.29158 28.0999 -9.22588 -10.2578 -13.3851 53.2171 14.8191 -3.36419 33.5257 0.994848 117.503 -61.7811 92.2047 
-21.9213 77.7872 -45.1567 1.74521 7.50484 -163.425 -29.6653 -36.4593 8.51105 12.0403 54.139 -16.885 6.4805 17.436 -1.42207 -13.4357 -44.804 -1.45241 3.20317 10.9724 -2.65944 -2.42753 21.0394 -4.07739 17.8384 -6.74599 -11.2845 -5.03302e-021 -3.88251e-019 1.21329e-020 -67.7975 -0.0352857 -64.0736 -12.1066 41.1406 -113.968 6.54677 9.62745 -1.04006 28.3517 -4.4136 -16.9202 50.2836 -33.7525 13.6242 -15.6037 35.3457 138.201 -13.2105 10.2857 -7.89956 28.2428 -10.0341 -9.99686 -12.4043 55.6087 14.0605 -4.0529 34.1669 1.26316 120.725 -60.9476 95.0857 
-21.4347 76.5131 -45.3836 1.30374 7.6613 -163.951 -30.6504 -35.6067 9.82529 9.52651 52.0435 -17.2749 3.84765 19.653 -0.90708 -13.5164 -44.9654 -1.50676 2.6694 11.1359 -2.30964 -3.25804 21.3546 -3.25034 18.4939 -6.60769 -12.0068 -5.03302e-021 -3.88251e-019 1.21329e-020 -67.0401 0.598703 -64.5311 -12.1272 40.9292 -113.193 6.54677 9.62745 -1.04006 28.1067 -4.33357 -16.7722 52.1469 -38.4724 16.5099 -15.6603 35.6638 141.919 -10.9438 10.3971 -9.96397 28.2109 -10.299 -10.0021 -12.5069 57.758 14.0012 -4.49691 33.9055 1.41705 121.169 -60.1028 95.9143 
-20.9429 75.3692 -45.7422 0.856237 7.69036 -165.654 -31.2995 -35.2934 10.6291 6.71717 49.2749 -15.4544 2.19575 22.2152 -0.547228 -14.1975 -45.6484 -2.26018 1.93559 11.1564 -1.73272 -4.30649 21.3399 -1.98224 18.6731 -6.15635 -12.367 -5.03302e-021 -3.88251e-019 1.21329e-020 -66.5173 0.738009 -63.7767 -12.0975 40.8108 -112.836 6.54677 9.62745 -1.04006 27.5433 -4.08481 -16.2037 55.3258 -42.5655 21.0438 -15.9181 35.3627 144.415 -8.3571 10.4231 -12.275 28.0396 -9.86143 -10.1831 -13.8928 59.5806 15.0537 -4.41044 32.8105 1.34847 118.852 -59.1647 94.8375 
-20.4464 74.3738 -46.2446 0.472516 7.64711 -168.577 -31.5507 -35.7262 10.7969 4.054 46.1679 -11.7746 1.85249 25.2704 -0.48771 -15.7474 -47.5064 -3.78073 1.06355 11.0339 -1.0038 -5.45436 21.0058 -0.44158 18.2918 -5.38195 -12.1657 -5.03302e-021 -3.88251e-019 1.21329e-020 -66.2851 0.118672 -61.8598 -12.0056 40.8464 -113.074 6.54677 9.62745 -1.04006 26.6296 -3.68067 -15.2307 59.9089 -44.9937 27.3254 -16.426 34.3444 145.282 -5.92014 10.355 -14.4837 27.7231 -8.63909 -10.4155 -16.4205 61.003 17.281 -3.75016 31.1135 1.06736 114.237 -58.0053 92.2815 
-19.9413 73.5234 -46.9072 0.214075 7.59307 -172.611 -31.2983 -36.9716 10.3526 1.81535 43.1742 -6.77992 3.07898 28.705 -0.910728 -18.0564 -50.5779 -5.76621 0.150991 10.7874 -0.228791 -6.54496 20.4166 1.1466 17.332 -4.35642 -11.2413 -5.03302e-021 -3.88251e-019 1.21329e-020 -66.3001 -1.4581 -58.9846 -11.8352 41.0518 -113.98 6.54677 9.62745 -1.04006 25.3566 -3.15834 -13.9147 65.1731 -44.9383 34.5839 -17.1643 32.797 144.409 -4.17896 10.2543 -16.2182 27.2177 -6.64022 -10.5815 -19.5974 61.9806 20.3688 -2.69309 29.1754 0.674009 108.218 -56.5371 88.9277 
-19.417 72.7974 -47.7477 0.143207 7.57016 -177.487 -30.409 -38.9358 9.48778 0.0723711 40.7809 -1.10637 5.97092 32.1035 -1.98924 -20.5936 -54.3717 -7.57485 -0.679764 10.4558 0.467439 -7.41376 19.6782 2.52616 15.8459 -3.21576 -9.49183 -5.03302e-021 -3.88251e-019 1.21329e-020 -66.4683 -4.09139 -55.5039 -11.6152 41.4205 -115.42 6.54677 9.62745 -1.04006 23.7585 -2.576 -12.364 69.8429 -42.2548 41.4122 -17.9568 31.13 142.028 -3.54785 10.2127 -17.1629 26.4723 -3.9801 -10.6207 -22.733 62.5316 23.782 -1.50922 27.4018 0.280323 101.866 -54.8011 85.5166 
-18.8548 72.1705 -48.7742 0.321438 7.57918 177.205 -28.79 -41.3819 8.51773 -1.25595 39.3863 4.58877 10.2371 34.8711 -3.7186 -22.5096 -58.1679 -8.3969 -1.30428 10.0944 0.953799 -7.92427 18.916 3.43871 13.9598 -2.11349 -6.88966 -5.03302e-021 -3.88251e-019 1.21329e-020 -66.7273 -7.78432 -51.8784 -11.4845 41.9775 -116.98 6.54677 9.62745 -1.04006 21.9437 -2.00441 -10.7316 73.065 -37.4633 46.7617 -18.4991 29.7375 138.636 -4.16146 10.2784 -17.0878 25.4724 -0.87889 -10.5715 -25.2038 62.7346 27.0349 -0.424401 26.1256 -0.0482789 96.0832 -52.9894 82.5786 
-18.2302 71.627 -49.9726 0.791483 7.57752 171.952 -26.4789 -43.9857 7.76203 -2.2843 39.1757 9.70811 15.0799 36.5237 -5.76107 -23.0448 -61.3338 -7.65888 -1.6292 9.76286 1.11308 -7.99817 18.2412 3.6647 11.8602 -1.15821 -3.48686 -5.03302e-021 -3.88251e-019 1.21329e-020 -67.1019 -12.4705 -48.63 -11.7057 42.7935 -117.978 6.54677 9.62745 -1.04006 20.114 -1.51004 -9.19457 74.7431 -31.3277 50.3691 -18.5442 28.7726 134.896 -5.79377 10.4075 -15.9339 24.2775 2.38351 -10.5647 -26.6528 62.6832 29.884 0.45793 25.5188 -0.301823 91.3878 -51.3699 80.304 
-17.5205 71.1699 -51.3024 1.55541 7.50526 167.225 -23.6977 -46.4119 7.39686 -3.04587 40.0619 13.785 19.4646 36.9748 -7.57273 -22.0721 -63.5607 -5.45652 -1.62142 9.5045 0.869119 -7.62609 17.7178 3.07136 9.7457 -0.363714 0.591296 -5.03302e-021 -3.88251e-019 1.21329e-020 -67.6883 -17.9865 -46.3017 -12.572 43.8627 -117.585 6.54677 9.62745 -1.04006 18.5305 -1.13381 -7.90594 75.0946 -24.5263 52.4179 -18.1026 28.096 131.52 -7.8671 10.4937 -13.9658 23.0305 5.54732 -10.7655 -27.017 62.435 32.3359 1.17153 25.5775 -0.509047 87.9071 -50.1593 78.6142 
-16.7144 70.8229 -52.7051 2.56885 7.32407 163.388 -20.8128 -48.3848 7.38207 -3.45248 41.7346 16.5244 22.6348 36.5473 -8.76375 -20.2068 -64.946 -2.54557 -1.31266 9.32975 0.21033 -6.8554 17.3485 1.64734 7.75223 0.351379 5.16488 -5.03302e-021 -3.88251e-019 1.21329e-020 -68.5718 -23.9317 -45.3877 -14.1822 44.8511 -115.089 6.54677 9.62745 -1.04006 17.4151 -0.880784 -6.94326 74.2893 -17.5752 53.2103 -17.4826 27.3802 129.134 -9.6209 10.4762 -11.8361 21.9261 8.43845 -11.3006 -26.452 61.9886 34.5337 1.85732 26.1747 -0.721164 85.4571 -49.4243 77.3051 
